<svg preserveAspectRatio="xMidYMid meet" data-bbox="0 0 189.5 35.4" viewBox="0 0 189.5 35.4" xmlns="http://www.w3.org/2000/svg" data-type="color" role="presentation" aria-hidden="true" aria-label="">
    <g>
        <path d="M40.2 18.4v10.9h-6.5V.1h12c3.9 0 5.8 1.7 5.8 5v8.2c0 2.7-1.2 4.3-3.7 4.9l5.1 11.1h-7l-4.6-10.9zm0-13.4v8.8h3.5q.6 0 .9-.3c.3-.3.3-.5.3-.8V6.1c0-.8-.4-1.1-1.2-1.1z" fill="#002b54" data-color="1"></path>
        <path d="M64.9 6.6h6.3v22.7h-6.4v-2.2c-.5 1.5-1.7 2.2-3.6 2.2h-1.1q-5.4 0-5.4-5.1V11.7q0-5.1 5.4-5.1h1.1c2 0 3.3.9 3.7 2.6zm-2.6 17.9h1.1c.9 0 1.4-.5 1.4-1.5V12.9c0-1-.5-1.5-1.4-1.5h-1.1c-.8 0-1.2.4-1.2 1.1v10.8q0 1.2 1.2 1.2" fill="#002b54" data-color="1"></path>
        <path d="M95.7 6.6h5.9L97 29.3h-6.9l-2.8-14.8-2.8 14.8h-6.8L73.3 6.6h6l2.2 16.1 2.9-16.1h6.1l2.7 16.1z" fill="#002b54" data-color="1"></path>
        <path d="M113.5 6.6h6.3v22.7h-6.4v-2.2c-.5 1.5-1.7 2.2-3.6 2.2h-1.1q-5.4 0-5.4-5.1V11.7q0-5.1 5.4-5.1h1.1c2 0 3.3.9 3.7 2.6zM111 24.5h1.1c.9 0 1.4-.5 1.4-1.5V12.9c0-1-.5-1.5-1.4-1.5H111c-.8 0-1.2.4-1.2 1.1v10.8q0 1.2 1.2 1.2" fill="#f3901d" data-color="2"></path>
        <path d="M144.3 6.6h5.9l-4.6 22.7h-6.9l-2.8-14.8-2.8 14.8h-6.8l-4.4-22.7h6l2.2 16.1L133 6.6h6.1l2.7 16.1z" fill="#f3901d" data-color="2"></path>
        <path d="M162.2 6.6h6.3v22.7h-6.4v-2.2c-.5 1.5-1.7 2.2-3.6 2.2h-1.1q-5.4 0-5.4-5.1V11.7q0-5.1 5.4-5.1h1.1c2 0 3.3.9 3.7 2.6zm-2.5 17.9h1.1c.9 0 1.4-.5 1.4-1.5V12.9c0-1-.5-1.5-1.4-1.5h-1.1c-.8 0-1.2.4-1.2 1.1v10.8q-.15 1.2 1.2 1.2" fill="#f3901d" data-color="2"></path>
        <path d="M176.7 35.4h-3.4v-4.8h2.8c.7 0 1.3-.1 1.7-.3s.7-.7.9-1.4l.2-.9h-2.7l-5.7-21.4h6.7l3 15.8L183 6.6h6.5l-5.4 23.3c-.5 1.8-1.4 3.2-2.5 4.2s-2.8 1.3-4.9 1.3" fill="#f3901d" data-color="2"></path>
        <path d="M.4 32.3c.2 0 .6-.1.9-.1.5 0 .8.1 1 .2s.3.4.3.6c0 .4-.3.7-.5.8.2.1.3.3.4.6s.2.7.2.9H2c0-.1-.1-.3-.2-.7s-.2-.5-.5-.5h-.2v1.2H.4zm.7 1.3h.3c.3 0 .5-.2.5-.4 0-.3-.2-.4-.5-.4h-.3z" fill="#929395" data-color="3"></path>
        <path d="m3.8 34.5-.2.8h-.7l.9-3.1h.9l.9 3.1h-.7l-.2-.8zm.8-.5-.2-.6c-.1-.2-.1-.4-.2-.6 0 .2-.1.4-.1.6l-.2.6z" fill="#929395" data-color="3"></path>
        <path d="m6.3 35.3-.7-3.1h.7l.2 1.3c.1.4.1.8.2 1.1 0-.3.1-.7.2-1.1l.3-1.3h.7l.2 1.3c.1.4.1.7.2 1 0-.3.1-.7.2-1.1l.2-1.3h.8l-.8 3.1h-.8l-.3-1.3c-.1-.3-.1-.6-.1-.9-.1.3-.1.6-.2.9L7 35.2z" fill="#929395" data-color="3"></path>
        <path d="M13.3 34.1v-1.3L13 34l-.4 1.2h-.5l-.3-1.2-.3-1.2c0 .4 0 .9-.1 1.3l-.1 1.2h-.6l.2-3.1h.9l.3 1c.1.4.2.7.3 1.1.1-.4.2-.8.3-1.1l.3-1h.9l.2 3.1h-.7z" fill="#929395" data-color="3"></path>
        <path d="m15.3 34.5-.2.8h-.7l.9-3.1h.9l.9 3.1h-.7l-.2-.8zm.8-.5-.2-.6c-.1-.2-.1-.4-.2-.6 0 .2-.1.4-.1.6l-.2.6z" fill="#929395" data-color="3"></path>
        <path d="M17.8 32.8H17v-.6h2.3v.6h-.8v2.5h-.7z" fill="#929395" data-color="3"></path>
        <path d="M21.5 34h-1.1v.7h1.3v.6h-1.9v-3.1h1.7v.6h-1.2v.6h1.2z" fill="#929395" data-color="3"></path>
        <path d="M22.1 32.3c.2 0 .6-.1.9-.1.5 0 .8.1 1 .2s.3.4.3.6c0 .4-.3.7-.5.8.2.1.3.3.4.6s.2.7.2.9h-.7c0-.1-.1-.3-.2-.7s-.2-.5-.5-.5h-.2v1.2h-.7zm.7 1.3h.3c.3 0 .5-.2.5-.4 0-.3-.2-.4-.5-.4h-.3z" fill="#929395" data-color="3"></path>
        <path d="M25.5 32.2v3.1h-.7v-3.1z" fill="#929395" data-color="3"></path>
        <path d="m26.8 34.5-.2.8h-.7l.9-3.1h.9l.9 3.1h-.7l-.2-.8zm.7-.5-.2-.6c-.1-.2-.1-.4-.2-.6 0 .2-.1.4-.1.6l-.2.6z" fill="#929395" data-color="3"></path>
        <path d="M29 32.2h.7v2.5h1.2v.6H29z" fill="#929395" data-color="3"></path>
        <path d="M30.7 0H0v30.6h30.6V15.3c-.1.1-.2.2-.3.2-.9.8-1.8 1.6-2.8 2.4-.2.1-.2.3-.2.5v8.9h-24v-24h23.6c.2 0 .4-.1.5-.2 1-1 2-1.9 3.1-2.9zM5.3 25.4h20c.3 0 .4-.1.4-.4v-5.4c-.3.1-.5.1-.7.2-1.5.3-3 0-4.4-.6-2.1-.9-3.9-2.4-5.4-4.1-1-1.1-2-2-3.3-2.7q-2.4-1.2-5.1-1.5c-.4-.1-.9-.1-1.3-.1v14.6z" fill="#ffffff" data-color="4"></path>
        <path d="m30.7 0-.2.2c-1 1-2 1.9-3.1 2.9-.2.1-.3.2-.5.2H3.3v24h24v-8.9c0-.2.1-.4.2-.5.9-.8 1.9-1.6 2.8-2.4.1-.1.2-.1.3-.2v15.3H0V0z" fill="#002b54" data-color="1"></path>
        <path d="M5.3 25.4V10.8c.5 0 .9.1 1.3.1q2.7.3 5.1 1.5 1.95 1.05 3.3 2.7c1.5 1.7 3.3 3.2 5.4 4.1 1.4.6 2.9.9 4.4.6.2-.1.5-.1.7-.2V25c0 .3-.1.4-.4.4z" fill="#f3901d" data-color="2"></path>
        <path d="m25.6 7.2-7.7 7.7s1.7 1.4 2.7 1.9c1 .4 1.8.8 2.9.3l2.2-2V7.2z" fill="#929395" data-color="3"></path>
        <path fill="#929395" d="M27.2 5.6v8.2l3.8-3.5V1.8z" data-color="3"></path>
        <path d="M7.4 22.5v1.8h-1v-4.7h1.9c.6 0 .9.3.9.8v1.3c0 .4-.2.7-.6.8l.8 1.8H8.3l-.7-1.8zm0-2.2v1.4h.7v-1.2c0-.1-.1-.2-.2-.2z" fill="#ffffff" data-color="4"></path>
        <path d="M11.3 20.6h1v3.7h-1v-.4c-.1.2-.3.4-.6.4h-.2c-.6 0-.9-.3-.9-.8v-2c0-.5.3-.8.9-.8h.2c.3 0 .5.1.6.4zm-.4 2.9h.2c.1 0 .2-.1.2-.2v-1.6c0-.2-.1-.2-.2-.2h-.2c-.1 0-.2.1-.2.2v1.7s.1.1.2.1" fill="#ffffff" data-color="4"></path>
        <path d="M16.3 20.6h.9l-.7 3.7h-1.1l-.5-2.4-.5 2.4h-1.1l-.7-3.7h1l.4 2.6.5-2.6h1l.4 2.6z" fill="#ffffff" data-color="4"></path>
    </g>
</svg>